# xmcd CD database file
#
# Track frame offsets:
#	150
#	13932
#	30732
#	47580
#	64547
#	88510
#	103312
#	118717
#	137545
#	157805
#	170677
#
# Disc length: 2487 seconds
#
# Revision: 2
# Processed by: cddbd v1.5PL3 Copyright (c) Steve Scherf et al.
# Submitted via: CDex 1.51
#
DISCID=8a09b50b
DTITLE=Savoy Brown - Kings of Boogie
DYEAR=1989
DGENRE=Rock and Roll
TTITLE0=Kings of Boogie
TTITLE1=Deep In My Heart
TTITLE2=A Man Alone
TTITLE3=No Win Love
TTITLE4=Mean Business
TTITLE5=Bad State of Mind
TTITLE6=Heartbreaks Make You Strong
TTITLE7=Since You've Been Gone
TTITLE8=Caught Me in the Saddle
TTITLE9=All Burned Out
TTITLE10=Until the Sky Fades Away
EXTD=YEAR: 1989
EXTT0=
EXTT1=
EXTT2=
EXTT3=
EXTT4=
EXTT5=
EXTT6=
EXTT7=
EXTT8=
EXTT9=
EXTT10=
PLAYORDER=
